<svg width="124" height="24" viewBox="0 0 124 24" fill="none" xmlns="http://www.w3.org/2000/svg">
<path d="M124 0H0V24H124V0Z" fill="#005E7B"/>
<path d="M12.3999 6.52402L16.3399 17.452H13.9799L13.2279 15.2H8.9839L8.2719 17.448H5.8999L9.7919 6.52002L12.3999 6.52402ZM9.5999 13.364H12.6439L11.1239 8.71202L9.5999 13.364Z" fill="white"/>
<path d="M19.4878 6.52393H24.6438C26.9078 6.52393 28.0798 7.50793 28.0798 9.28393C28.0798 10.3799 27.6558 11.1279 26.7718 11.5359C27.9158 11.9959 28.4638 12.8439 28.4638 14.1279C28.4638 16.2079 27.0638 17.4519 24.4638 17.4519H19.4878V6.52393ZM24.2198 10.7479C25.2958 10.7479 25.8198 10.3959 25.8198 9.54793C25.8198 8.69993 25.2918 8.40793 24.2198 8.40793H21.6478V10.7359L24.2198 10.7479ZM24.3078 15.4799C25.5398 15.4799 26.1238 15.0799 26.1238 14.0639C26.1238 12.9959 25.5398 12.6159 24.2958 12.6159H21.6478V15.4799H24.3078Z" fill="white"/>
<path d="M37.176 6.52402L41.12 17.452H38.76L38 15.2H33.772L33.056 17.448H30.688L34.576 6.52002L37.176 6.52402ZM34.376 13.364H37.416L35.888 8.71202L34.376 13.364Z" fill="white"/>
<path d="M44.248 4.3479H42.136V8.6919H44.248V4.3479Z" fill="#ED1F24"/>
<path d="M64.444 9.02394C64.2823 9.08265 64.1066 9.09101 63.94 9.04794C63.8188 8.98095 63.719 8.88112 63.652 8.75994L62.256 6.84794C62.1829 6.73009 62.0828 6.63136 61.964 6.55994C61.7963 6.51473 61.6187 6.52312 61.456 6.58394L56.948 7.82394V16.2239L61.472 14.9919C61.6355 14.9353 61.8119 14.9269 61.98 14.9679C62.0986 15.0383 62.1976 15.1374 62.268 15.2559L63.656 17.1639C63.7279 17.2827 63.8283 17.3817 63.948 17.4519C64.1146 17.495 64.2903 17.4866 64.452 17.4279L68.964 16.2279V7.82794L64.444 9.02394Z" fill="#ED1F24"/>
<path d="M101.576 10.656H102.896L103.124 11.388H103.924L102.664 7.82397L101.624 8.32797L100.532 11.388H101.332L101.576 10.656ZM102.236 8.62797L102.68 10.04H101.768L102.236 8.62797Z" fill="white"/>
<path d="M99.9 9.46797C100.042 9.40876 100.16 9.30567 100.239 9.17388C100.317 9.0421 100.351 8.8886 100.336 8.73597C100.336 8.36797 100.112 7.82397 99.236 7.82397H98.256L97.5 8.18797V11.388H99.012C99.744 11.388 99.94 11.264 100.144 11.068C100.241 10.9716 100.319 10.857 100.371 10.7307C100.424 10.6044 100.452 10.4689 100.452 10.332C100.47 10.147 100.425 9.96143 100.325 9.80484C100.225 9.64826 100.075 9.52967 99.9 9.46797ZM98.22 8.43997H99.072C99.412 8.43997 99.62 8.52797 99.62 8.81997C99.62 9.11197 99.388 9.21997 99.092 9.21997H98.22V8.43997ZM99.132 10.772H98.22V9.81997H99.168C99.436 9.81997 99.704 9.93997 99.704 10.252C99.704 10.564 99.496 10.772 99.132 10.772Z" fill="white"/>
<path d="M107.156 11.388V7.82397L106.46 8.16397V10.308H106.452L105.032 7.82397L104.248 8.20397V11.388H104.944V8.84397H104.952L106.412 11.388H107.156Z" fill="white"/>
<path d="M108.592 10.184L108.94 9.82397L110.044 11.388H111.004L109.46 9.28397L110.916 7.82397L109.76 8.02797L108.592 9.27197V7.82397L107.844 8.18797V11.388H108.592V10.184Z" fill="white"/>
<path d="M77.2719 7.82397L76.2319 8.32797L75.1399 11.388H75.9399L76.1879 10.656H77.5079L77.7359 11.388H78.5359L77.2759 7.82397H77.2719ZM76.3719 10.04L76.8279 8.62797L77.2719 10.04H76.3719Z" fill="white"/>
<path d="M91.872 7.82397L90.832 8.32797L89.74 11.388H90.54L90.788 10.656H92.108L92.336 11.388H93.136L91.876 7.82397H91.872ZM90.976 10.04L91.432 8.62797L91.872 10.04H90.976Z" fill="white"/>
<path d="M79.916 11.388V8.45597H80.628L80.996 7.82397H78.456L78.092 8.45197V8.45597H79.172V11.388H79.916Z" fill="white"/>
<path d="M82.036 7.82397L81.292 8.18397V11.388H82.036V7.82397Z" fill="white"/>
<path d="M84.2479 11.4839C84.7199 11.4839 85.9639 11.2799 85.9639 9.60791C85.9639 7.93591 84.7199 7.72791 84.2479 7.72791H84.1399L82.9039 8.33191C82.6389 8.70131 82.5077 9.14995 82.5319 9.60391C82.5319 11.2799 83.7759 11.4839 84.2479 11.4839ZM84.2479 8.35991C84.6479 8.35991 85.2199 8.60791 85.2199 9.60791C85.2199 10.6079 84.6519 10.8519 84.2479 10.8519C83.8439 10.8519 83.2799 10.6039 83.2799 9.60791C83.2799 8.61191 83.8479 8.35991 84.2479 8.35991Z" fill="white"/>
<path d="M72.5721 8.84397H72.5801L74.0361 11.388H74.7841V7.82397L74.0881 8.16397V10.308H74.0761L72.6601 7.82397L71.8721 8.20397V11.388H72.5721V8.84397Z" fill="white"/>
<path d="M88.672 10.308H88.664L87.244 7.82397L86.46 8.20797V11.388H87.156V8.84798H87.168L88.624 11.388H89.368V7.82397L88.672 8.16397V10.308Z" fill="white"/>
<path d="M96.02 10.744H94.244V7.82397L93.5 8.18797V11.388H95.648L96.02 10.744Z" fill="white"/>
<path d="M84.8001 12.6399L83.7561 13.1439L82.6641 16.2079H83.4641L83.7121 15.4719H85.0321L85.2601 16.2079H86.0601L84.8001 12.6399ZM83.9001 14.8559L84.3561 13.4439L84.7961 14.8559H83.9001Z" fill="white"/>
<path d="M98.5559 12.6399L97.5119 13.1439L96.4199 16.2079H97.2199L97.4679 15.4719H98.7879L99.0159 16.2079H99.8159L98.5559 12.6399ZM97.6559 14.8559L98.1119 13.4439L98.5519 14.8559H97.6559Z" fill="white"/>
<path d="M91.84 12.6399L90.8 13.1439L89.708 16.2079H90.508L90.756 15.4719H92.076L92.304 16.2079H93.104L91.84 12.6399ZM90.94 14.8559L91.396 13.4439L91.836 14.8559H90.94Z" fill="white"/>
<path d="M81.9361 14.988C81.913 15.1807 81.8175 15.3574 81.6689 15.4822C81.5203 15.607 81.3298 15.6706 81.1361 15.66C80.5041 15.66 80.2521 15.084 80.2521 14.46C80.2521 13.452 80.7801 13.212 81.1361 13.212C81.324 13.1904 81.5129 13.2432 81.6624 13.359C81.8119 13.4749 81.9101 13.6447 81.9361 13.832H82.6841C82.6446 13.4606 82.4605 13.1197 82.1715 12.8831C81.8825 12.6465 81.5119 12.5333 81.1401 12.568H81.1001L79.8681 13.168C79.6083 13.5445 79.4778 13.995 79.4961 14.452C79.4961 15.684 80.1801 16.324 81.1321 16.324C81.5097 16.3437 81.8807 16.2185 82.1691 15.9739C82.4576 15.7293 82.6418 15.3838 82.6841 15.008L81.9361 14.988Z" fill="white"/>
<path d="M88.6358 15.1239H88.6279L87.2078 12.6399L86.4238 13.0199V16.2079H87.1198V13.6639H87.1278L88.5878 16.2079H89.3359V12.6399L88.6358 12.9799V15.1239Z" fill="white"/>
<path d="M95.044 12.6399H94.216L93.468 13.0039V16.2039H95.016C96.216 16.2039 96.5 15.0999 96.5 14.3359C96.5 13.6639 96.252 12.6399 95.044 12.6399ZM94.928 15.5999H94.2V13.2559H94.916C95.236 13.2559 95.736 13.3399 95.736 14.3919C95.736 14.9799 95.532 15.5999 94.928 15.5999Z" fill="white"/>
<path d="M77.828 13.2679L78.192 12.6399H76.428L75.6479 13.0199V16.2079H76.396V14.7079H77.604L77.968 14.0759H76.396V13.2679H77.828Z" fill="white"/>
<path d="M73.44 12.568H73.332L72.092 13.168C71.8296 13.54 71.7 13.9894 71.724 14.444C71.724 16.12 72.968 16.32 73.44 16.32C73.912 16.32 75.156 16.12 75.156 14.444C75.156 12.768 73.912 12.568 73.44 12.568ZM73.44 15.696C73.04 15.696 72.468 15.444 72.468 14.448C72.468 13.452 73.036 13.2 73.44 13.2C73.844 13.2 74.412 13.448 74.412 14.448C74.412 15.448 73.844 15.696 73.44 15.696Z" fill="white"/>
<path d="M109.884 12.568H109.776L108.54 13.168C108.274 13.5385 108.143 13.9887 108.168 14.444C108.168 16.12 109.412 16.32 109.884 16.32C110.356 16.32 111.604 16.12 111.604 14.444C111.604 12.768 110.356 12.568 109.884 12.568ZM109.884 15.696C109.484 15.696 108.916 15.444 108.916 14.448C108.916 13.452 109.48 13.2 109.884 13.2C110.288 13.2 110.856 13.448 110.856 14.448C110.856 15.448 110.288 15.696 109.884 15.696Z" fill="white"/>
<path d="M102.836 14.884H103.636V15.336C103.523 15.4231 103.4 15.4945 103.268 15.548C103.129 15.6044 102.982 15.6356 102.832 15.64C102.697 15.6441 102.564 15.6174 102.441 15.5619C102.318 15.5065 102.21 15.4237 102.124 15.32C101.925 15.0458 101.83 14.7098 101.856 14.372C101.831 14.0541 101.927 13.7387 102.124 13.488C102.212 13.3888 102.322 13.3108 102.444 13.2596C102.567 13.2083 102.699 13.1852 102.832 13.192C103.005 13.1858 103.175 13.2381 103.314 13.3405C103.453 13.4428 103.554 13.5892 103.6 13.756H104.276C104.266 13.5821 104.221 13.412 104.142 13.2565C104.064 13.101 103.954 12.9633 103.82 12.852C103.526 12.66 103.179 12.5662 102.828 12.584C102.765 12.5801 102.703 12.5801 102.64 12.584L101.524 13.168C101.466 13.2435 101.413 13.3223 101.364 13.404C101.216 13.7121 101.141 14.0502 101.144 14.392C101.143 14.7168 101.21 15.0382 101.34 15.336C101.466 15.6165 101.675 15.8512 101.94 16.008C102.223 16.1672 102.543 16.2474 102.868 16.24C103.155 16.2372 103.438 16.1802 103.704 16.072C103.936 15.9826 104.147 15.8464 104.324 15.672V14.284H102.844L102.836 14.884Z" fill="white"/>
<path d="M107.2 14.916C107.094 14.8002 106.971 14.7005 106.836 14.62C107.092 14.5983 107.33 14.4812 107.504 14.292C107.659 14.1092 107.74 13.8754 107.732 13.636C107.734 13.4394 107.683 13.2459 107.584 13.076C107.492 12.9224 107.351 12.804 107.184 12.74C106.925 12.6597 106.655 12.6258 106.384 12.64H105.676L104.944 13.04V16.2H105.628V14.7H105.76C105.878 14.6966 105.995 14.7115 106.108 14.744C106.188 14.7788 106.26 14.8291 106.32 14.892C106.45 15.0591 106.568 15.2341 106.676 15.416L107.2 16.188H108L107.6 15.5C107.484 15.2943 107.35 15.0989 107.2 14.916ZM106.144 14.144H105.64V13.24H106.176C106.452 13.24 106.616 13.24 106.672 13.24C106.773 13.254 106.865 13.3036 106.932 13.38C106.997 13.4647 107.029 13.5695 107.024 13.676C107.027 13.7686 107.003 13.86 106.956 13.94C106.91 14.0093 106.843 14.0614 106.764 14.088C106.561 14.1344 106.352 14.1533 106.144 14.144Z" fill="white"/>
<path d="M114.096 14.6039C114.098 14.8044 114.087 15.0048 114.064 15.2039C114.043 15.3238 113.979 15.4318 113.884 15.5079C113.758 15.6058 113.599 15.6529 113.44 15.6399C113.28 15.6443 113.124 15.5981 112.992 15.5079C112.883 15.4166 112.808 15.2911 112.78 15.1519C112.759 14.9567 112.751 14.7602 112.756 14.5639V12.6399L112.072 12.9919V14.5279C112.061 14.8306 112.083 15.1336 112.136 15.4319C112.167 15.5793 112.235 15.7166 112.332 15.8319C112.441 15.9619 112.577 16.0658 112.732 16.1359C112.969 16.2219 113.22 16.2613 113.472 16.2519C113.696 16.2597 113.919 16.223 114.128 16.1439C114.282 16.0803 114.419 15.9817 114.528 15.8559C114.627 15.7244 114.697 15.5729 114.732 15.4119C114.779 15.113 114.798 14.8103 114.788 14.5079V12.6399L114.104 12.9999L114.096 14.6039Z" fill="white"/>
<path d="M117.904 13.044C117.788 12.8717 117.615 12.7457 117.416 12.688C117.151 12.646 116.884 12.63 116.616 12.64H116.252L115.512 13.04V16.2H116.196V14.848H116.648C116.885 14.853 117.122 14.8369 117.356 14.8C117.493 14.7631 117.621 14.6982 117.732 14.6094C117.843 14.5206 117.934 14.4098 118 14.284C118.082 14.1119 118.12 13.9224 118.112 13.732C118.124 13.4856 118.05 13.2427 117.904 13.044ZM117.324 14.02C117.268 14.0961 117.192 14.1556 117.104 14.192C116.929 14.2392 116.749 14.2594 116.568 14.252H116.188V13.24H116.52C116.686 13.2355 116.851 13.2436 117.016 13.264C117.122 13.2849 117.219 13.3396 117.292 13.42C117.367 13.5095 117.405 13.6236 117.4 13.74C117.401 13.8385 117.375 13.9355 117.324 14.02Z" fill="white"/>
<path d="M50.992 3.57202H50.396V20.428H50.992V3.57202Z" fill="white"/>
</svg>
